<?xml version="1.0" encoding="UTF-8" standalone="no"?>
<svg width="400px" height="400px" viewBox="0 0 400 400" version="1.1" xmlns="http://www.w3.org/2000/svg" xmlns:xlink="http://www.w3.org/1999/xlink" xmlns:sketch="http://www.bohemiancoding.com/sketch/ns">
    <!-- Generator: Sketch 3.3.1 (12005) - http://www.bohemiancoding.com/sketch -->
    <title>Artboard 1</title>
    <desc>Created with Sketch.</desc>
    <defs></defs>
    <g id="Page-3" stroke="none" stroke-width="1" fill="none" fill-rule="evenodd" sketch:type="MSPage">
        <g id="Artboard-1" sketch:type="MSArtboardGroup">
            <path d="M156.04914,155.131339 L57.0926627,56.174862 C57.2286956,56.0321516 57.3667992,55.8906903 57.5069734,55.750516 C61.0572574,52.200232 65.4315458,49.9775847 70.0137418,49.0821993 C85.5292738,64.4689645 135.918826,112.414641 182.461666,146.320283 L182.461666,146.320283 L183.302835,147.161451 C192.794493,156.65311 192.800619,172.053891 183.305483,181.549026 C183.165308,181.689201 183.023849,181.827306 182.881143,181.963342 L176.176901,175.259101 C181.735029,169.700973 181.735029,160.689467 176.176901,155.131339 C170.618773,149.573211 161.607268,149.573211 156.04914,155.131339 L156.04914,155.131339 L156.04914,155.131339 Z M156.04914,155.131339 L57.0926627,56.174862 C56.9499523,56.3108949 56.808491,56.4489985 56.6683167,56.5891728 C53.1180327,60.1394568 50.8953854,64.5137452 50,69.0959411 C65.3867652,84.6114731 113.332442,135.001025 147.238084,181.543866 L147.238084,181.543866 L148.079252,182.385034 C157.570911,191.876693 172.971692,191.882818 182.466827,182.387683 C182.607002,182.247508 182.745107,182.106048 182.881143,181.963342 L176.176901,175.259101 C170.618773,180.817228 161.607268,180.817228 156.04914,175.259101 C150.491012,169.700973 150.491012,160.689467 156.04914,155.131339 L156.04914,155.131339 L156.04914,155.131339 Z" id="leftCrank" fill="#D8D8D8" sketch:type="MSShapeGroup">
                <animateTransform attributeName="transform"
                    attributeType="XML"
                    type="translate"
                    values="0,0;70,70;0,0"
                    calcMode="spline"
                    keySplines="
                        0.5 0 0.5 1; 
                        0.5 0 0.5 1; " 
                    keyTimes="
                        0;0.5;1"
                    dur="0.5s"
                    repeatCount="indefinite"
                    begin='-0.125s'
                />
                <animateTransform attributeName="transform"
                    attributeType="XML"
                    type="rotate"
                    values="0 62 64; -18 62 64; 0 62 64; 18 62 64; 0 62 64"
                    dur="0.5s"
                    repeatCount="indefinite"
                    calcMode="spline"
                    keySplines="
                        .36,.54,.6,1;
                        .37,.01,.82,.72; 
                        .36,.54,.6,1;
                        .37,.01,.82,.72;" 
                    keyTimes="
                        0;0.25;0.5;0.75;1"
                    additive="sum"
                    begin='-0.125s'
                /> 
            </path>
            <path d="M130.0671,203.087673 C131.682916,240.314937 162.37491,270 200.000222,270 C237.622089,270 268.311908,240.320373 269.9329,203.097898 L269.9329,203.097898 C224.10818,194.892116 240.421817,132.736223 202.604395,130.047544 C201.740244,130.01594 200.872095,130 200.000222,130 C199.088188,130 198.180228,130.017442 197.276656,130.052011 C159.554743,132.803089 175.796351,194.845145 130.0671,203.087673 L130.0671,203.087673 Z M200.000222,215 C208.284494,215 215.000222,208.284271 215.000222,200 C215.000222,191.715729 208.284494,185 200.000222,185 C191.715951,185 185.000222,191.715729 185.000222,200 C185.000222,208.284271 191.715951,215 200.000222,215 Z M200.000222,164 C206.627639,164 212.000222,158.627417 212.000222,152 C212.000222,145.372583 206.627639,140 200.000222,140 C193.372805,140 188.000222,145.372583 188.000222,152 C188.000222,158.627417 193.372805,164 200.000222,164 Z" id="Oval-1" fill="#939694" sketch:type="MSShapeGroup" transform="translate(200.000000, 200.000000) rotate(-315.000000) translate(-200.000000, -200.000000) ">
                <animateTransform attributeName="transform"
                    attributeType="XML"
                    type="rotate"
                    from="-315 200 200"
                    to="45 200 200"
                    dur="0.5s"
                    repeatCount="indefinite"
                /> 
            </path>
            <path d="M82.9014438,19.8960463 L81.4872302,18.4818327 L17.8476199,82.121443 L19.2618335,83.5356566 L82.9014438,19.8960463 L82.9014438,19.8960463 L82.9014438,19.8960463 Z M84.3156574,21.3102598 L110.03555,47.0301521 C100.271396,51.3426191 86.8623573,61.1899667 73.7090556,74.3432684 C60.5557539,87.4965701 50.7084064,100.905609 46.3959394,110.669762 L20.676047,84.9498701 L84.3156574,21.3102598 L84.3156574,21.3102598 L84.3156574,21.3102598 Z M80.0730167,17.0676191 L73.7090556,10.7036581 L10.0694453,74.3432684 L16.4334064,80.7072294 L80.0730167,17.0676191 L80.0730167,17.0676191 Z M69.9519924,70.5862052 C73.8572354,66.6809623 73.8572354,60.3493125 69.9519924,56.4440696 C66.0467495,52.5388267 59.7150997,52.5388267 55.8098568,56.4440696 C51.9046139,60.3493125 51.9046139,66.6809623 55.8098568,70.5862052 C59.7150997,74.4914481 66.0467495,74.4914481 69.9519924,70.5862052 L69.9519924,70.5862052 L69.9519924,70.5862052 Z" id="piston2" fill="#827474" sketch:type="MSShapeGroup">
                <animateTransform attributeName="transform"
                    attributeType="XML"
                    type="translate"
                    values="0,0;70,70;0,0"
                    calcMode="spline"
                    keySplines="
                        0.5 0 0.5 1; 
                        0.5 0 0.5 1; " 
                    keyTimes="
                        0;0.5;1"
                    dur="0.5s"
                    repeatCount="indefinite"
                    begin='-0.125s'
                />
            </path>
            <path d="M244.349778,156.189041 L342.503681,58.0351385 C342.368752,57.8935856 342.231768,57.7532716 342.092731,57.6142342 C338.571241,54.0927443 334.23243,51.8881234 329.687397,51 C314.297702,66.2619728 264.316828,113.818792 218.151467,147.449446 L218.151467,147.449446 L217.317121,148.283792 C207.902443,157.69847 207.896368,172.974345 217.314494,182.392471 C217.453532,182.531509 217.593844,182.668495 217.735393,182.803427 L224.385261,176.153559 C218.872211,170.64051 218.872211,161.702091 224.385261,156.189041 C229.89831,150.675992 238.836729,150.675992 244.349778,156.189041 L244.349778,156.189041 L244.349778,156.189041 Z M244.349778,156.189041 L342.503681,58.0351385 C342.645234,58.1700682 342.785548,58.3070517 342.924586,58.4460891 C346.446076,61.967579 348.650696,66.3063902 349.53882,70.8514228 C334.276847,86.2411181 286.720028,136.221992 253.089373,182.387353 L253.089373,182.387353 L252.255027,183.221699 C242.84035,192.636377 227.564475,192.642452 218.146349,183.224326 C218.007311,183.085288 217.870325,182.944976 217.735393,182.803427 L224.385261,176.153559 C229.89831,181.666609 238.836729,181.666609 244.349778,176.153559 C249.862828,170.64051 249.862828,161.702091 244.349778,156.189041 L244.349778,156.189041 L244.349778,156.189041 Z" id="rightCrank" fill="#D8D8D8" sketch:type="MSShapeGroup">
                <animateTransform attributeName="transform"
                    attributeType="XML"
                    type="translate"
                    values="0,0;-70,70;0,0"
                    calcMode="spline"
                    keySplines="
                        0.5 0 0.5 1; 
                        0.5 0 0.5 1; " 
                    keyTimes="
                        0;0.5;1"
                    dur="0.5s"
                    repeatCount="indefinite"
                    additive="sum"
                />
                <animateTransform attributeName="transform"
                    attributeType="XML"
                    type="rotate"
                    values="0 335 65; -18 335 65; 0 335 65; 18 335 65; 0 335 65"
                    dur="0.5s"
                    repeatCount="indefinite"
                    calcMode="spline"
                    keySplines="
                        .36,.54,.6,1;
                        .37,.01,.82,.72; 
                        .36,.54,.6,1;
                        .37,.01,.82,.72;" 
                    keyTimes="
                        0;0.25;0.5;0.75;1"
                    additive="sum"
                /> 
            </path>
            <path d="M378.861289,83.5356566 L380.275502,82.121443 L380.275502,82.121443 L316.635892,18.4818327 L315.221678,19.8960463 L378.861289,83.5356566 L378.861289,83.5356566 L378.861289,83.5356566 Z M377.447075,84.9498701 L351.727183,110.669762 C347.414716,100.905609 337.567368,87.4965701 324.414066,74.3432684 C311.260765,61.1899667 297.851726,51.3426191 288.087572,47.0301521 L313.807465,21.3102598 L377.447075,84.9498701 L377.447075,84.9498701 L377.447075,84.9498701 Z M381.689716,80.7072294 L388.053677,74.3432684 L324.414066,10.7036581 L318.050105,17.0676191 L381.689716,80.7072294 L381.689716,80.7072294 L381.689716,80.7072294 Z M328.17113,70.5862052 C332.076372,74.4914481 338.408022,74.4914481 342.313265,70.5862052 C346.218508,66.6809623 346.218508,60.3493125 342.313265,56.4440696 C338.408022,52.5388267 332.076372,52.5388267 328.17113,56.4440696 C324.265887,60.3493125 324.265887,66.6809623 328.17113,70.5862052 L328.17113,70.5862052 Z" id="piston1" fill="#827474" sketch:type="MSShapeGroup">
                <animateTransform attributeName="transform"
                    attributeType="XML"
                    type="translate"
                    values="0,0;-70,70;0,0"
                    calcMode="spline"
                    keySplines="
                        0.5 0 0.5 1; 
                        0.5 0 0.5 1; " 
                    keyTimes="
                        0;0.5;1"
                    dur="0.5s"
                    repeatCount="indefinite"
                />
            </path>
        </g>
    </g>
</svg>